<?xml version="1.0" encoding="UTF-8"?>
<svg width="193px" height="175px" viewBox="0 0 193 175" version="1.1" xmlns="http://www.w3.org/2000/svg" xmlns:xlink="http://www.w3.org/1999/xlink">
    <!-- Generator: Sketch 59 (86127) - https://sketch.com -->
    <title>Illustrations / 1</title>
    <desc>Created with Sketch.</desc>
    <g id="Page-1" stroke="none" stroke-width="1" fill="none" fill-rule="evenodd">
        <g id="Desktop-HD-/-List" transform="translate(-280.000000, -205.000000)">
            <g id="Layout-/-Target-Offer" transform="translate(208.000000, 128.000000)">
                <g id="Banner">
                    <g id="All" transform="translate(72.000000, 47.000000)">
                        <g id="Illustrations-/-1" transform="translate(0.000000, 29.000000)">
                            <g id="Speech-bubble-2" transform="translate(88.101266, 1.000000)">
                                <path d="M9.72151899,0 L94.278481,0 C99.6475277,1.03274218e-14 104,4.35247231 104,9.72151899 L104,48.8618143 C104,54.230861 99.6475277,58.5833333 94.278481,58.5833333 L37.7076023,58.5833333 L37.7076023,58.5833333 C26.1520468,68.8611111 18.8538012,74 15.8128655,74 C12.7719298,74 14.2923977,68.8611111 20.374269,58.5833333 L9.72151899,58.5833333 C4.35247231,58.5833333 -1.05134418e-14,54.230861 0,48.8618143 L0,9.72151899 C-6.57518583e-16,4.35247231 4.35247231,2.76263471e-15 9.72151899,0 Z" id="Bubble" fill="#FFEEE8" fill-rule="nonzero"></path>
                                <line x1="25.8987342" y1="38" x2="79.8987342" y2="38" id="Path-3" stroke="#2B2D33" stroke-width="2" fill-rule="nonzero"></line>
                                <line x1="25.8987342" y1="28" x2="79.8987342" y2="28" id="Path-2" stroke="#2B2D33" stroke-width="2" fill-rule="nonzero"></line>
                                <line x1="25.8987342" y1="18" x2="79.8987342" y2="18" id="Path-1" stroke="#2B2D33" stroke-width="2" fill-rule="nonzero"></line>
                            </g>
                            <g id="Speech-bubble-1" transform="translate(0.000000, 37.562500)">
                                <path d="M4.86075949,0 L68.6582278,0 C71.3427512,-4.93138938e-16 73.5189873,2.17623615 73.5189873,4.86075949 L73.5189873,37.7954905 C73.5189873,40.4800138 71.3427512,42.65625 68.6582278,42.65625 L45.5696203,42.65625 L45.5696203,42.65625 C49.6055304,48.75 50.7194544,51.796875 48.9113924,51.796875 C47.1033304,51.796875 42.8501658,48.75 36.1518987,42.65625 L4.86075949,42.65625 C2.17623615,42.65625 6.54600823e-15,40.4800138 0,37.7954905 L0,4.86075949 C-1.21693771e-15,2.17623615 2.17623615,1.38131736e-15 4.86075949,0 Z" id="Bubble" fill="#9AE4CE" fill-rule="nonzero"></path>
                                <path d="" id="Speech" stroke="#2B2D33" stroke-width="2" fill-rule="nonzero"></path>
                            </g>
                            <g id="⚠️" transform="translate(58.721519, 44.875000)">
                                <path d="M38.2791049,1.79774648 C38.1406961,1.52092881 37.9162373,1.29647005 37.6394197,1.15806121 C36.9328428,0.804772794 36.0736523,1.09116964 35.7203638,1.79774648 L1.15426959,70.929935 C1.05496159,71.128551 1.00326039,71.3475608 1.00326039,71.5696203 C1.00326039,72.3595972 1.64366321,73 2.43364013,73 L71.5658286,73 C71.7878881,73 72.0068979,72.9482988 72.2055139,72.8489908 C72.9120907,72.4957024 73.1984876,71.6365118 72.8451992,70.929935 L38.2791049,1.79774648 Z" id="Triangle" stroke="#2B2D33" stroke-width="2" fill-rule="nonzero"></path>
                                <path d="M37,53 C39.209139,53 41,54.790861 41,57 C41,59.209139 39.209139,61 37,61 C34.790861,61 33,59.209139 33,57 C33,54.790861 34.790861,53 37,53 Z M37.0379747,24 C38.7158018,24 40.0759494,26.0731061 40.0759494,33.140625 C40.0759494,37.8523043 39.0632911,43.3366793 37.0379747,49.59375 C35.0126582,43.3366793 34,37.8523043 34,33.140625 C34,26.0731061 35.3601476,24 37.0379747,24 Z" id="!" fill="#2B2D33" fill-rule="nonzero"></path>
                            </g>
                            <g id="Speech-bubble-3" transform="translate(88.037975, 109.156250)">
                                <path d="M18.2187814,0 L91.0835442,0 C92.6942583,-2.95883374e-16 94,1.30574174 94,2.91645581 L94,63.0835442 C94,64.6942583 92.6942583,66 91.0835442,66 L18.2187814,66 C16.6080673,66 15.3023256,64.6942583 15.3023256,63.0835442 L15.3023256,39.2333333 L15.3023256,39.2333333 C5.10077519,33.3519595 0,29.6852928 0,28.2333333 C0,26.7813739 5.10077519,26.7813739 15.3023256,28.2333333 L15.3023256,2.91645581 C15.3023256,1.30574174 16.6080673,1.36185597e-14 18.2187814,0 Z" id="Bubble" fill="#BEC7D2" fill-rule="nonzero"></path>
                                <path d="M39.149633,26.6449998 L39.7197226,26.8861916 C39.6177282,26.3770566 39.5142642,25.9453553 39.4097405,25.5937459 C39.3222153,25.8884385 39.2354324,26.2393778 39.149633,26.6449998 Z M48.00671,30.3922247 L49.8070961,31.1539265 C49.6160454,29.5440494 49.4656569,28.4965839 49.2796027,27.4575034 C49.1425644,26.6921688 49.0025521,26.0678085 48.8605914,25.5910695 C48.7186306,26.0678085 48.5786183,26.6921688 48.44158,27.4575034 C48.2865808,28.323147 48.1563348,29.1946101 48.00671,30.3922247 Z M57.0247676,34.2075568 L59.7250619,35.349989 C59.7109789,35.2193663 59.6966561,35.0862402 59.6820818,34.9505254 C59.2419545,30.8521004 59.0340321,29.1437288 58.732215,27.4574325 C58.5953066,26.6925056 58.455428,26.0683978 58.3136018,25.5917443 C58.1717119,26.0683981 58.0317709,26.6925294 57.8948042,27.4574964 C57.6117893,29.0381507 57.4112179,30.6389813 57.0247676,34.2075568 Z M66.0577144,38.0291881 L69.6567702,39.5518656 C69.5128823,38.4010625 69.3522159,36.9604449 69.1365275,34.9540576 C69.1363436,34.9523463 69.1363436,34.9523463 69.1361596,34.950635 C68.6956933,30.8533072 68.4874186,29.1439822 68.1852294,27.4576381 C68.0480035,26.6918594 67.9077955,26.0672254 67.765637,25.5904018 C67.6237503,26.0669626 67.4838072,26.6911089 67.3468347,27.456193 C67.0450279,29.1419877 66.8370005,30.8507674 66.3970042,34.947122 C66.3968203,34.9488347 66.3968203,34.9488347 66.3966363,34.9505474 C66.2664023,36.1630228 66.156238,37.1689474 66.0577144,38.0291881 Z M75.0149778,41.8187996 L80.7562154,44.2477847 C80.7454281,44.1589966 80.7342799,44.0670873 80.7227355,43.9717762 C80.6922932,43.7204433 80.6549247,43.4110314 80.5836803,42.8210758 C80.5252995,42.3380335 80.4798751,41.9636868 80.4343007,41.5907034 C80.1775134,39.48914 79.9621895,37.8186449 79.7332425,36.1949856 C79.2408881,32.7032797 78.751074,29.9341409 78.2354116,27.9063295 C77.9471887,26.7729103 77.6574339,25.9039455 77.377126,25.3353679 C77.3635015,25.3077319 77.3499982,25.2810194 77.3366377,25.2552405 C77.1569801,25.7584571 76.9799762,26.4970264 76.8076685,27.4577799 C76.5052331,29.144099 76.2967867,30.8534147 75.8559571,34.9507227 C75.8557731,34.9524325 75.8557731,34.9524325 75.8555892,34.9541424 C75.4736712,38.5038944 75.2641227,40.2827055 75.0149778,41.8187996 Z M77.0494609,24.8157048 C77.049438,24.8156813 77.0494152,24.8156577 77.0493923,24.8156342 C77.048654,24.8148759 77.0502404,24.815389 77.0541045,24.8167235 Z M31.1836913,25.4464236 C31.4964876,27.8557219 31.9858491,31.7257887 32.1366891,32.841249 C32.6523078,36.6542469 33.1234655,39.4809681 33.6319029,41.5877467 C33.921589,42.7881002 34.2146535,43.705065 34.5023677,44.3060698 C34.5260794,44.3556012 34.5494787,44.4023682 34.5724608,44.446322 C34.7533476,43.9427403 34.9315416,43.1995113 35.1049616,42.2301454 C35.4066584,40.5437513 35.6145898,38.8344077 36.0543294,34.7370403 C36.0545134,34.7353262 36.0545134,34.7353262 36.0546974,34.7336121 C36.4362094,31.1787922 36.6452868,29.3999995 36.8942764,27.8624404 L31.1836913,25.4464236 Z M34.3342527,44.9584031 C34.3311502,44.9616363 34.3283522,44.9648047 34.3258603,44.9678862 C34.3331027,44.9589302 34.3408338,44.9483624 34.3490035,44.9362134 Z M42.2448547,30.1261466 C42.3889899,31.2792344 42.5498628,32.7232299 42.766075,34.7369965 C42.7662589,34.7387099 42.7662589,34.7387099 42.7664429,34.7404233 C43.2062575,38.8367874 43.4141991,40.5455715 43.7158827,42.2313784 C43.8525987,42.9953467 43.9922759,43.6187928 44.1338932,44.0950997 C44.2757183,43.6185298 44.4155976,42.9946193 44.5525083,42.2299966 C44.8544486,40.5437128 45.0624568,38.8353455 45.5027657,34.7369307 C45.6335361,33.519714 45.7440638,32.5107369 45.8428804,31.6483882 L42.2448547,30.1261466 Z M43.7811954,44.9580958 C43.7780916,44.9613262 43.7752933,44.9644916 43.772802,44.9675697 C43.7800429,44.9586231 43.7877717,44.9480683 43.7959383,44.935936 Z M52.1742969,34.3270644 C52.1887469,34.4610201 52.2034493,34.5976114 52.218417,34.7369307 C52.6587259,38.8353455 52.8667341,40.5437128 53.1686744,42.2299966 C53.3056492,42.9949771 53.4455953,43.6191136 53.5874886,44.0957686 C53.7292398,43.6193767 53.86905,42.9956798 54.0058952,42.231307 C54.289117,40.6493219 54.4897535,39.0470954 54.8770048,35.4705178 L52.1742969,34.3270644 Z M53.9417521,44.9591089 C53.9440044,44.9620726 53.9462144,44.9648931 53.9483807,44.9675697 C53.9427367,44.9605962 53.9355167,44.9531748 53.9267395,44.9455641 Z M53.2350666,44.9582701 C53.2319652,44.9615 53.2291682,44.9646653 53.2266772,44.9677438 C53.2339169,44.9587968 53.2416456,44.9482389 53.2498129,44.9361009 Z M62.0919782,38.5230066 C62.2835492,40.1389058 62.4341279,41.1886961 62.6205149,42.2300675 C62.7574233,42.9949944 62.8973019,43.6191022 63.039128,44.0957557 C63.1810179,43.6191019 63.320959,42.9949706 63.4579257,42.2300036 C63.6133336,41.3620416 63.7438825,40.4879958 63.8939995,39.2854002 L62.0919782,38.5230066 Z M63.3932945,44.9592584 C63.3955481,44.9622251 63.3977592,44.9650485 63.3999266,44.9677276 C63.3942793,44.9607469 63.3870567,44.9533189 63.3782778,44.9457016 Z M62.6866285,44.9580966 C62.6835247,44.9613269 62.6807264,44.9644923 62.6782352,44.9675704 C62.685476,44.9586238 62.6932048,44.9480691 62.7013714,44.9359368 Z M72.1816925,42.7917318 C72.2849266,43.3076485 72.3896642,43.7443587 72.4954794,44.0991112 C72.5842408,43.8018088 72.6722457,43.4469248 72.7592428,43.03608 L72.1816925,42.7917318 Z M72.8488625,44.9589751 C72.8511142,44.9619361 72.8533235,44.9647541 72.8554891,44.9674282 C72.8498465,44.9604606 72.8426282,44.9530458 72.8338534,44.945442 Z M72.1436671,44.9576575 C72.1405633,44.9608819 72.1377657,44.9640411 72.135276,44.9671129 C72.1425126,44.9581846 72.1502364,44.9476529 72.1583977,44.9355483 Z" id="Speech" stroke="#2B2D33" stroke-width="2" fill-rule="nonzero"></path>
                            </g>
                        </g>
                    </g>
                </g>
            </g>
        </g>
    </g>
</svg>