<?xml version="1.0" encoding="UTF-8"?>
<svg width="19px" height="19px" viewBox="0 0 19 19" version="1.1" xmlns="http://www.w3.org/2000/svg" xmlns:xlink="http://www.w3.org/1999/xlink">
    <!-- Generator: Sketch 59 (86127) - https://sketch.com -->
    <title>search</title>
    <desc>Created with Sketch.</desc>
    <g id="Symbols" stroke="none" stroke-width="1" fill="none" fill-rule="evenodd">
        <g id="Icons-/-search" transform="translate(-3.000000, -3.000000)" fill="#2B2D33" fill-rule="nonzero">
            <path d="M11,3 C15.418278,3 19,6.581722 19,11 C19,12.8482015 18.3732643,14.550021 17.3207287,15.9045228 L21.2071068,19.7928932 L19.7928932,21.2071068 L15.9045228,17.3207287 C14.550021,18.3732643 12.8482015,19 11,19 C6.581722,19 3,15.418278 3,11 C3,6.581722 6.581722,3 11,3 Z M11,5 C7.6862915,5 5,7.6862915 5,11 C5,14.3137085 7.6862915,17 11,17 C14.3137085,17 17,14.3137085 17,11 C17,7.6862915 14.3137085,5 11,5 Z" id="search"></path>
        </g>
    </g>
</svg>