<svg width="24" height="24" viewBox="0 0 24 24" fill="none" xmlns="http://www.w3.org/2000/svg">
<path fill-rule="evenodd" clip-rule="evenodd" d="M22 11H20.688C20.5909 10.1456 20.3671 9.31045 20.024 8.522L21.16 7.866L20.16 6.134L19.017 6.794C18.5027 6.10516 17.8905 5.49506 17.2 4.983L17.861 3.84L16.129 2.84L15.473 3.976C14.686 3.63346 13.8526 3.40937 13 3.311V2H11V3.311C10.1454 3.409 9.30995 3.6331 8.521 3.976L7.866 2.84L6.134 3.84L6.794 4.983C6.10554 5.49546 5.49546 6.10554 4.983 6.794L3.84 6.134L2.84 7.866L3.976 8.522C3.63299 9.31056 3.40888 10.1457 3.311 11H2V13H3.311C3.40888 13.8543 3.63299 14.6894 3.976 15.478L2.84 16.134L3.84 17.866L4.983 17.2C5.49517 17.889 6.10528 18.4995 6.794 19.012L6.134 20.155L7.866 21.155L8.521 20.019C9.30968 20.3636 10.1451 20.5894 11 20.689V22H13V20.689C13.8543 20.5911 14.6894 20.367 15.478 20.024L16.134 21.16L17.866 20.16L17.2 19.017C17.8912 18.5033 18.5033 17.8912 19.017 17.2L20.16 17.861L21.16 16.129L20.024 15.473C20.3667 14.6861 20.5904 13.8527 20.688 13H22V11ZM12 19C8.13401 19 5 15.866 5 12C5 8.13401 8.13401 5 12 5C15.866 5 19 8.13401 19 12C18.9956 15.8642 15.8642 18.9956 12 19ZM12 8.1C9.84609 8.1 8.1 9.84609 8.1 12C8.1 14.1539 9.84609 15.9 12 15.9C14.1539 15.9 15.9 14.1539 15.9 12C15.8972 9.84723 14.1528 8.10275 12 8.1ZM12 14.1C10.8402 14.1 9.9 13.1598 9.9 12C9.9 10.8402 10.8402 9.9 12 9.9C13.1598 9.9 14.1 10.8402 14.1 12C14.1 13.1598 13.1598 14.1 12 14.1Z" fill="black"/>
</svg>
